<?xml version="1.0" encoding="iso-8859-1"?>
<!-- Generator: Adobe Illustrator 19.0.0, SVG Export Plug-In . SVG Version: 6.00 Build 0)  -->
<svg version="1.1" id="Capa_1" xmlns="http://www.w3.org/2000/svg" xmlns:xlink="http://www.w3.org/1999/xlink" x="0px" y="0px"
	 viewBox="0 0 54.34 54.34" style="enable-background:new 0 0 54.34 54.34;" xml:space="preserve">
<g>
	<g>
		<path d="M42.554,20.198c-0.807,0-1.417,0.378-1.879,0.927c-0.015-0.172-0.022-0.32-0.022-0.438c0-2.513-1.389-4.137-3.537-4.137
			c-0.95,0-1.676,0.265-2.217,0.639c-0.324-1.123-1.277-2.369-3.102-2.369c-1,0-1.769,0.296-2.342,0.673
			c-0.026-4.461-0.059-9.843-0.059-10.104c0-1.035-1.241-3.049-3.518-3.049c-1.956,0-3.049,1.837-3.386,2.922
			c-0.027,0.087-0.042,0.178-0.045,0.269l-0.505,18.234c-0.828-1.542-1.995-3.008-2.877-3.458c-1.033-0.528-2.784-0.171-3.824,0.78
			c-0.962,0.88-1.215,2.13-0.692,3.43c0.416,1.033,0.668,2.248,0.961,3.653c0.373,1.795,0.837,4.028,1.824,6.751
			c1.585,4.375,6.534,8.995,7.914,10.224v3.29c0,3.256,2.653,5.904,5.914,5.904h6.477c3.261,0,5.914-2.651,5.914-5.91v-3.95
			c1.664-2.28,2.657-6.387,2.7-6.567c0.019-0.076,0.027-0.154,0.027-0.232V24.017C46.282,21.732,44.784,20.198,42.554,20.198z
			 M44.282,37.56c-0.312,1.255-1.285,4.459-2.502,5.947c-0.146,0.179-0.226,0.402-0.226,0.633v4.29c0,2.156-1.756,3.91-3.914,3.91
			h-6.478c-2.158,0-3.914-1.751-3.914-3.904v-3.743c0-0.293-0.129-0.571-0.352-0.761c-0.06-0.052-6.054-5.197-7.682-9.691
			c-0.94-2.589-1.368-4.654-1.747-6.476c-0.311-1.5-0.581-2.795-1.063-3.993c-0.26-0.647-0.059-0.964,0.146-1.168
			c0.396-0.396,1.038-0.543,1.396-0.543c0.093,0,0.166,0.01,0.211,0.028c0.674,0.345,2.313,2.669,2.737,4.35
			c0.173,0.684,0.26,1.332,0.337,1.904c0.146,1.092,0.262,1.954,0.916,2.475c0.296,0.235,0.7,0.284,1.044,0.123
			c0.344-0.159,0.567-0.5,0.578-0.879l0.674-24.312c0.14-0.351,0.63-1.409,1.435-1.409c1.127,0,1.501,1.051,1.517,1.051
			c0.001,0,0.001,0,0.001-0.001c0,0.476,0.095,16.066,0.095,16.066c0.003,0.528,0.417,0.963,0.944,0.992
			c0.557,0.021,0.987-0.355,1.049-0.882l0.444-3.786c0.185-0.288,0.736-0.961,1.868-0.961c1.01,0,1.198,0.837,1.24,1.267
			l0.627,4.057c0.081,0.521,0.561,0.9,1.076,0.844c0.525-0.047,0.924-0.493,0.912-1.02l-0.062-2.595
			c0.107-0.259,0.463-0.822,1.525-0.822c1.271,0,1.537,1.162,1.537,2.137c0,1.211,0.58,4.338,0.646,4.69
			c0.092,0.489,0.531,0.847,1.025,0.815c0.497-0.021,0.903-0.405,0.952-0.9c0.139-1.401,0.739-3.093,1.277-3.093
			c1.428,0,1.728,0.989,1.728,1.818L44.282,37.56L44.282,37.56z"/>
		<path d="M14.351,5.95l4.242,4.242c0.195,0.195,0.451,0.293,0.707,0.293c0.256,0,0.512-0.098,0.707-0.293
			c0.391-0.391,0.391-1.023,0-1.414l-3.535-3.535l3.535-3.536c0.391-0.391,0.391-1.023,0-1.414s-1.023-0.391-1.414,0l-4.242,4.243
			C13.961,4.927,13.961,5.56,14.351,5.95z"/>
		<path d="M14.007,8.778l-3.535-3.535l3.535-3.536c0.391-0.391,0.391-1.023,0-1.414s-1.023-0.391-1.414,0L8.351,4.536
			c-0.391,0.391-0.391,1.023,0,1.414l4.242,4.242c0.195,0.195,0.451,0.293,0.707,0.293c0.256,0,0.512-0.098,0.707-0.293
			C14.398,9.802,14.398,9.169,14.007,8.778z"/>
		<path d="M41.13,5.243l-3.536,3.535c-0.391,0.391-0.391,1.023,0,1.414c0.195,0.195,0.451,0.293,0.707,0.293
			c0.256,0,0.512-0.098,0.707-0.293l4.243-4.242c0.188-0.188,0.293-0.441,0.293-0.707s-0.105-0.519-0.293-0.707l-4.243-4.243
			c-0.391-0.391-1.023-0.391-1.414,0s-0.391,1.023,0,1.414L41.13,5.243z"/>
		<path d="M31.593,10.192c0.195,0.195,0.451,0.293,0.707,0.293c0.256,0,0.512-0.098,0.707-0.293l4.243-4.242
			c0.188-0.188,0.293-0.441,0.293-0.707s-0.105-0.519-0.293-0.707l-4.243-4.243c-0.391-0.391-1.023-0.391-1.414,0
			s-0.391,1.023,0,1.414l3.536,3.536l-3.536,3.535C31.203,9.169,31.203,9.802,31.593,10.192z"/>
	</g>
</g>
<g>
</g>
<g>
</g>
<g>
</g>
<g>
</g>
<g>
</g>
<g>
</g>
<g>
</g>
<g>
</g>
<g>
</g>
<g>
</g>
<g>
</g>
<g>
</g>
<g>
</g>
<g>
</g>
<g>
</g>
</svg>
