<?xml version="1.0" encoding="iso-8859-1"?>
<!-- Generator: Adobe Illustrator 19.0.0, SVG Export Plug-In . SVG Version: 6.00 Build 0)  -->
<svg version="1.1" id="Layer_1" xmlns="http://www.w3.org/2000/svg" xmlns:xlink="http://www.w3.org/1999/xlink" x="0px" y="0px"
	 viewBox="0 0 512 512" style="enable-background:new 0 0 512 512;" xml:space="preserve">
<g>
	<g>
		<g>
			<path d="M0,208.128V495.99h512V208.128H0z M496.305,480.296H15.695V223.823h480.609V480.296z"/>
			<polygon points="151.779,31.705 360.222,31.705 360.222,71.887 375.917,71.887 375.917,16.01 136.084,16.01 136.084,71.887 
				151.779,71.887 			"/>
			<polygon points="111.754,95.744 400.246,95.744 400.246,135.926 415.941,135.926 415.941,80.049 96.059,80.049 96.059,135.926 
				111.754,135.926 			"/>
			<polygon points="71.73,159.784 440.271,159.784 440.271,199.966 455.967,199.966 455.967,144.089 56.034,144.089 56.034,199.966 
				71.73,199.966 			"/>
			<rect x="247.997" y="344.21" width="16.01" height="15.695"/>
			<rect x="215.978" y="344.21" width="16.01" height="15.695"/>
			<rect x="280.015" y="344.21" width="16.01" height="15.695"/>
		</g>
	</g>
</g>
<g>
</g>
<g>
</g>
<g>
</g>
<g>
</g>
<g>
</g>
<g>
</g>
<g>
</g>
<g>
</g>
<g>
</g>
<g>
</g>
<g>
</g>
<g>
</g>
<g>
</g>
<g>
</g>
<g>
</g>
</svg>
